<svg width="54" height="54" viewBox="0 0 54 54" fill="none" xmlns="http://www.w3.org/2000/svg">
<path d="M42.75 15.75H36V13.5C36 11.1131 35.0518 8.82387 33.364 7.13604C31.6761 5.44821 29.3869 4.5 27 4.5C24.6131 4.5 22.3239 5.44821 20.636 7.13604C18.9482 8.82387 18 11.1131 18 13.5V15.75H11.25C10.6533 15.75 10.081 15.9871 9.65901 16.409C9.23705 16.831 9 17.4033 9 18V42.75C9 44.5402 9.71116 46.2571 10.977 47.523C12.2429 48.7888 13.9598 49.5 15.75 49.5H38.25C40.0402 49.5 41.7571 48.7888 43.023 47.523C44.2888 46.2571 45 44.5402 45 42.75V18C45 17.4033 44.7629 16.831 44.341 16.409C43.919 15.9871 43.3467 15.75 42.75 15.75ZM22.5 13.5C22.5 12.3065 22.9741 11.1619 23.818 10.318C24.6619 9.47411 25.8065 9 27 9C28.1935 9 29.3381 9.47411 30.182 10.318C31.0259 11.1619 31.5 12.3065 31.5 13.5V15.75H22.5V13.5ZM40.5 42.75C40.5 43.3467 40.2629 43.919 39.841 44.341C39.419 44.7629 38.8467 45 38.25 45H15.75C15.1533 45 14.581 44.7629 14.159 44.341C13.7371 43.919 13.5 43.3467 13.5 42.75V20.25H18V22.5C18 23.0967 18.2371 23.669 18.659 24.091C19.081 24.5129 19.6533 24.75 20.25 24.75C20.8467 24.75 21.419 24.5129 21.841 24.091C22.2629 23.669 22.5 23.0967 22.5 22.5V20.25H31.5V22.5C31.5 23.0967 31.7371 23.669 32.159 24.091C32.581 24.5129 33.1533 24.75 33.75 24.75C34.3467 24.75 34.919 24.5129 35.341 24.091C35.7629 23.669 36 23.0967 36 22.5V20.25H40.5V42.75Z" fill="#EB7C7C"/>
</svg>
