<svg width="54" height="54" viewBox="0 0 54 54" fill="none" xmlns="http://www.w3.org/2000/svg">
<path fill-rule="evenodd" clip-rule="evenodd" d="M21.2197 9.39712C20.5807 10.8956 20.529 12.8138 20.5931 14.625H41.625C42.246 14.625 42.7567 15.1313 42.6858 15.7478C42.2527 19.5334 39.6495 22.8274 35.8616 24.8569C35.9572 25.299 36 25.7546 36 26.2159C36 28.2622 34.4508 29.8777 32.7948 30.9037C31.6987 31.5742 30.5018 32.0639 29.25 32.3539V30.0285C30.08 29.7896 30.8742 29.4404 31.6113 28.9901C33.0491 28.1002 33.75 27.0742 33.75 26.2159C33.75 26.0764 33.7443 25.9436 33.7342 25.8154C32.0501 26.442 30.2017 26.8414 28.2543 26.9618V36H26.0043V26.9753C18.2441 26.595 12.0071 21.8003 11.3141 15.7478C11.2432 15.1313 11.7528 14.625 12.375 14.625H18.342C18.2778 12.7879 18.3183 10.4647 19.1497 8.51512C19.6267 7.39575 20.376 6.36637 21.5268 5.62837C22.6743 4.89375 24.1335 4.5 25.9402 4.5C28.1531 4.5 29.9531 5.30325 31.1782 6.08175C31.7936 6.47213 32.2751 6.86362 32.607 7.16062C32.7889 7.32374 32.9638 7.49452 33.1312 7.6725L33.1425 7.68375L33.1447 7.68825L33.147 7.68937C33.147 7.68937 33.147 7.69162 32.3212 8.424L33.1481 7.69162C33.3397 7.91559 33.4357 8.2058 33.4156 8.49984C33.3954 8.79389 33.2607 9.06829 33.0404 9.26402C32.82 9.45976 32.5316 9.56121 32.2373 9.54655C31.9429 9.53189 31.666 9.40229 31.4662 9.18563L31.455 9.17325C31.343 9.0564 31.2267 8.94382 31.1062 8.83575C30.7521 8.52037 30.3729 8.23442 29.9722 7.98075C28.9822 7.353 27.5996 6.75 25.9402 6.75C24.4597 6.75 23.4483 7.0695 22.7418 7.52175C22.0398 7.97175 21.555 8.60962 21.2197 9.39712ZM13.8442 16.875C15.1661 21.105 20.2196 24.75 27 24.75C33.7803 24.75 38.835 21.105 40.1557 16.875H13.8442Z" fill="#3284BB"/>
<path d="M18 47.25V49.5H36V47.25H32.6036C33.3461 46.3365 33.75 45.1856 33.75 43.875C33.75 42.1369 33.039 40.68 31.7734 39.6855C30.5359 38.7146 28.8619 38.25 27 38.25C25.3316 38.25 23.85 38.1037 22.8161 37.6436C22.32 37.4231 21.9757 37.1509 21.7519 36.8314C21.5336 36.5197 21.375 36.0844 21.375 35.4364C21.375 34.7906 21.5325 34.3564 21.7519 34.0436C21.9757 33.7241 22.32 33.4519 22.8161 33.2314C23.3528 32.9929 24.0086 32.8376 24.75 32.7454V30.4796C23.7442 30.5876 22.7587 30.7946 21.9026 31.1749C21.1331 31.5169 20.4232 32.0186 19.908 32.7532C19.3882 33.4957 19.125 34.3969 19.125 35.4375C19.125 36.4781 19.3882 37.3792 19.908 38.1217C20.4232 38.8564 21.1342 39.3581 21.9026 39.7001C23.3989 40.365 25.2934 40.4989 27 40.4989C28.5142 40.4989 29.6505 40.8791 30.3829 41.4551C31.086 42.0064 31.5 42.8006 31.5 43.8739C31.5 44.9494 31.086 45.7425 30.3829 46.2949C29.8687 46.6987 29.1566 47.0059 28.2544 47.1532V42.75H26.0044V47.25H18Z" fill="#3284BB"/>
</svg>
