<svg width="54" height="54" viewBox="0 0 54 54" fill="none" xmlns="http://www.w3.org/2000/svg">
<path d="M19.4063 47.25C15.8813 47.25 12.8903 46.0215 10.4333 43.5645C7.97625 41.1075 6.7485 38.118 6.75 34.596C6.75 32.9085 7.06875 31.296 7.70625 29.7585C8.34375 28.221 9.2625 26.8515 10.4625 25.65L25.65 10.4625C26.85 9.2625 28.2188 8.34375 29.7563 7.70625C31.2938 7.06875 32.9063 6.75 34.5938 6.75C38.1188 6.75 41.1098 7.97775 43.5668 10.4333C46.0238 12.8888 47.2515 15.8798 47.25 19.4062C47.25 21.0938 46.9313 22.7062 46.2938 24.2437C45.6562 25.7812 44.7375 27.15 43.5375 28.35L28.35 43.5375C27.15 44.7375 25.7812 45.6562 24.2437 46.2938C22.7063 46.9313 21.0938 47.25 19.4063 47.25ZM34.3688 31.1625L40.3875 25.2C41.1375 24.45 41.7188 23.5687 42.1313 22.5562C42.5438 21.5437 42.75 20.4937 42.75 19.4062C42.75 17.1562 41.9528 15.234 40.3583 13.6395C38.7638 12.045 36.8423 11.2485 34.5938 11.25C33.5063 11.25 32.4563 11.4563 31.4438 11.8688C30.4313 12.2812 29.55 12.8625 28.8 13.6125L22.8375 19.6313L34.3688 31.1625ZM19.4063 42.75C20.4938 42.75 21.5437 42.5438 22.5563 42.1313C23.5688 41.7188 24.45 41.1375 25.2 40.3875L31.1625 34.3687L19.6313 22.8375L13.6125 28.8C12.8625 29.55 12.2813 30.4313 11.8688 31.4438C11.4563 32.4563 11.25 33.5063 11.25 34.5938C11.25 36.8438 12.0473 38.766 13.6418 40.3605C15.2363 41.955 17.157 42.7515 19.404 42.75H19.4063Z" fill="#3DBB32"/>
</svg>
